<svg xmlns = "http://www.w3.org/2000/svg" width = "1000" height = "1000">
<g>
<polygon points = "62.500, 462.500 0.000, 471.429 0.000, 1000.000 500.000, 1000.000 500.000, 900.000 "
fill = "none" stroke = "black"/>
</g>
<g>
<polygon points = "761.538, 577.885 589.286, 721.429 500.000, 900.000 500.000, 1000.000 1000.000, 1000.000 1000.000, 637.500 "
fill = "none" stroke = "black"/>
</g>
<g>
<polygon points = "0.000, 471.429 62.500, 462.500 315.476, 310.714 591.667, 0.000 0.000, 0.000 "
fill = "none" stroke = "black"/>
</g>
<g>
<polygon points = "761.538, 577.885 1000.000, 637.500 1000.000, 0.000 596.429, 0.000 "
fill = "none" stroke = "black"/>
</g>
<g>
<polygon points = "315.476, 310.714 589.286, 721.429 761.538, 577.885 596.429, 0.000 591.667, 0.000 "
fill = "none" stroke = "black"/>
</g>
<g>
<polygon points = "315.476, 310.714 62.500, 462.500 500.000, 900.000 589.286, 721.429 "
fill = "none" stroke = "black"/>
</g>
</svg>
